<svg width="301" height="302" viewBox="0 0 301 302" fill="none" xmlns="http://www.w3.org/2000/svg">
<circle cx="151.085" cy="151" r="123.794" stroke="white" stroke-width="3"/>
<circle cx="151.085" cy="151" r="133.118" stroke="white" stroke-opacity="0.4" stroke-width="2" stroke-dasharray="10 10"/>
<path d="M144.026 1L151.5 8.05882L158.144 1" stroke="white"/>
<path d="M158.144 301L150.67 293.941L144.026 301" stroke="white"/>
<path d="M1 158.069L8.05882 150.595L0.999999 143.952" stroke="white"/>
<path d="M293.941 151.426L301 143.952L301 158.069L293.941 151.426Z" fill="white"/>
<path d="M40.0395 49.9241L50.3158 49.6305L50.0222 39.9414" stroke="white"/>
<path d="M262.154 252.073L251.878 252.367L252.171 262.056" stroke="white"/>
<path d="M49.924 262.056L49.6304 251.78L39.9414 252.073" stroke="white"/>
<path d="M252.073 39.9412L252.367 50.2175L262.056 49.9238" stroke="white"/>
<path d="M105.444 7.93805L114.49 12.8219L119.081 4.28413" stroke="white"/>
<path d="M196.726 294.062L187.68 289.178L183.09 297.716" stroke="white"/>
<path d="M7.93817 196.651L12.822 187.605L4.28426 183.015" stroke="white"/>
<path d="M289.178 114.415L294.062 105.369L297.716 119.006L289.178 114.415Z" fill="white"/>
<path d="M17.6638 82.1119L27.5139 79.1686L24.7226 69.8857" stroke="white"/>
<path d="M284.53 219.886L274.68 222.829L277.471 232.112" stroke="white"/>
<path d="M82.1118 284.432L79.1685 274.582L69.8856 277.373" stroke="white"/>
<path d="M219.886 17.5654L222.829 27.4155L232.112 24.6242" stroke="white"/>
<path d="M69.9721 24.6256L79.9742 27.0017L82.1983 17.5668" stroke="white"/>
<path d="M232.198 277.374L222.196 274.998L219.972 284.433" stroke="white"/>
<path d="M24.6254 232.125L27.0015 222.123L17.5665 219.899" stroke="white"/>
<path d="M277.374 69.8985L274.998 79.9006L284.433 82.1247" stroke="white"/>
<path d="M4.37988 118.995L13.1326 113.603L8.0338 105.358" stroke="white"/>
<path d="M289.059 188.397L297.812 183.004L294.158 196.641L289.059 188.397Z" fill="white"/>
<path d="M118.995 297.715L113.602 288.963L105.358 294.061" stroke="white"/>
<path d="M183.004 4.28363L188.396 13.0364L196.641 7.93755" stroke="white"/>
<path fill-rule="evenodd" clip-rule="evenodd" d="M55.356 110.088C65.8671 85.5472 85.5472 65.8671 110.088 55.356L55.356 110.088ZM50.7677 123.162L123.162 50.7677C128.039 49.4161 133.06 48.4109 138.197 47.7803L47.7803 138.197C48.4109 133.06 49.4161 128.039 50.7677 123.162ZM47.0611 147.401C47.0205 148.596 47 149.796 47 151C47 153.757 47.1073 156.489 47.3179 159.192L159.192 47.3179C156.489 47.1073 153.757 47 151 47C149.796 47 148.596 47.0205 147.401 47.0611L47.0611 147.401ZM166.803 48.1929L48.1929 166.803C48.7103 170.197 49.3917 173.537 50.2288 176.814L176.814 50.2288C173.537 49.3917 170.197 48.7103 166.803 48.1929ZM183.387 52.1417L52.1417 183.387C53.1158 186.362 54.2203 189.277 55.4486 192.127L192.127 55.4486C189.277 54.2203 186.362 53.1158 183.387 52.1417ZM197.907 58.1541L58.1541 197.907C59.4901 200.547 60.9354 203.121 62.4839 205.625L205.625 62.4839C203.121 60.9354 200.547 59.4901 197.907 58.1541ZM210.737 65.8572L65.8572 210.737C67.5068 213.084 69.2509 215.359 71.084 217.558L217.558 71.084C215.359 69.2509 213.084 67.5067 210.737 65.8572ZM222.063 75.0647L75.0647 222.063C77.0061 224.136 79.0315 226.131 81.1354 228.04L228.04 81.1355C226.131 79.0315 224.136 77.0061 222.063 75.0647ZM231.954 85.7066L85.7066 231.954C87.9383 233.756 90.2461 235.468 92.6243 237.084L237.084 92.6243C235.468 90.2461 233.756 87.9383 231.954 85.7066ZM240.386 97.8073L97.8073 240.386C100.347 241.901 102.958 243.311 105.632 244.609L244.609 105.632C243.311 102.958 241.901 100.347 240.386 97.8073ZM247.233 111.493L111.493 247.233C114.386 248.422 117.344 249.485 120.361 250.413L250.413 120.361C249.485 117.344 248.422 114.386 247.233 111.493ZM252.225 127.034L127.034 252.225C130.368 253.011 133.764 253.637 137.213 254.094L254.094 137.213C253.637 133.764 253.011 130.368 252.225 127.034ZM254.828 144.965L144.965 254.828C146.962 254.942 148.974 255 151 255C153.018 255 155.022 254.943 157.011 254.829L254.829 157.011C254.943 155.022 255 153.018 255 151C255 148.974 254.942 146.962 254.828 144.965ZM253.858 166.468L166.468 253.858C171.824 253.059 177.047 251.852 182.104 250.269L250.269 182.104C251.852 177.047 253.059 171.824 253.858 166.468ZM196.138 244.721L244.721 196.138C234.502 217.316 217.316 234.502 196.138 244.721Z" fill="white" fill-opacity="0.2"/>
</svg>
