<svg width="36" height="36" viewBox="0 0 36 36" fill="none" xmlns="http://www.w3.org/2000/svg">
<path d="M12.375 14.9646C12.3 14.8357 12.1875 14.7712 12.0375 14.7712C11.8875 14.7712 11.7375 14.8357 11.5875 14.9646C11.4625 15.0677 11.4 15.1966 11.4 15.3512C11.4 15.5832 11.675 15.6992 12.225 15.6992C12.55 15.6992 12.825 15.6477 13.05 15.5446C13.35 15.4415 13.475 15.2997 13.425 15.1192C13.375 14.9903 13.225 14.9646 12.975 15.0419C12.675 15.145 12.475 15.1192 12.375 14.9646ZM25.05 13.3405C25.25 13.3405 25.225 13.2116 24.975 12.9538C24.95 12.9023 24.925 12.8765 24.9 12.8765C24.825 12.8765 24.7875 12.9538 24.7875 13.1085C24.7875 13.2632 24.875 13.3405 25.05 13.3405ZM25.2375 12.4125C25.0375 12.4125 24.9875 12.464 25.0875 12.5671C25.1875 12.6702 25.2875 12.6702 25.3875 12.5671C25.3875 12.4898 25.3375 12.4382 25.2375 12.4125ZM13.275 7.46294C15.725 2.48765 16.975 0 17.025 0L17.55 0.232008C17.75 0.335123 17.85 0.438238 17.85 0.541353C17.85 0.644468 17.775 0.850699 17.625 1.16004C17.4 1.62406 17.35 1.88185 17.475 1.93341C17.55 2.01074 18.1375 2.10097 19.2375 2.20408L20.85 2.35875L21.6 8.0043C22.075 11.6649 22.3875 13.6756 22.5375 14.0365C22.6375 14.2685 22.825 14.101 23.1 13.5338L23.175 13.3018C24.075 11.2137 25.2 8.73899 26.55 5.87755C27.925 3.01611 28.725 1.43072 28.95 1.12137C29.225 0.683137 29.4 0.515576 29.475 0.618691C29.5 0.644469 29.5375 0.734694 29.5875 0.889366C29.6875 1.14715 29.8375 1.31472 30.0375 1.39205C30.2625 1.46939 30.75 1.5725 31.5 1.7014C32.55 1.88185 33.175 2.02363 33.375 2.12675C33.575 2.22986 33.675 2.46187 33.675 2.82277C33.675 3.10634 33.7375 3.33835 33.8625 3.5188C34.0125 3.69925 34.3125 3.93126 34.7625 4.21482L36 5.02685C36 5.98067 35.6375 8.63588 34.9125 12.9925C34.1625 17.7358 33.7875 20.4425 33.7875 21.1128C33.7875 21.4995 33.825 21.8217 33.9 22.0795C34 22.5435 34.05 22.84 34.05 22.9689C34.05 23.3555 33.7625 24.2965 33.1875 25.7916L32.2125 28.3437L31.425 28.305L30.6 28.2277L30.075 25.4049C29.825 24.116 29.7 23.0075 29.7 22.0795V21.8861C30 20.0559 30.2875 16.666 30.5625 11.7164C30.6625 10.015 30.75 8.89366 30.825 8.35231C30.925 7.7594 30.9 7.46294 30.75 7.46294C30.65 7.46294 30.25 8.22342 29.55 9.74436C28.85 11.2395 28.2125 12.6831 27.6375 14.0752C27.4125 14.6681 27.2375 14.9646 27.1125 14.9646C27.0375 14.9646 26.975 15.1192 26.925 15.4286C26.9 15.7379 26.2625 17.2846 25.0125 20.0687C23.7875 22.8528 23.1125 24.2707 22.9875 24.3222H22.95C22.7 24.3222 22.0375 23.884 20.9625 23.0075C19.8875 22.1053 19.3125 21.5124 19.2375 21.2288C19.1375 20.8937 19.0875 20.5457 19.0875 20.1847C19.0875 19.695 19.1875 19.4501 19.3875 19.4501C19.4875 19.4501 19.6125 19.5789 19.7625 19.8367C19.8375 19.9914 19.9375 20.0687 20.0625 20.0687C20.2625 20.0687 20.4125 19.8367 20.5125 19.3727C20.5375 19.1149 20.675 19.0634 20.925 19.218C21.125 19.3469 21.1375 19.5274 20.9625 19.7594C20.8625 19.8625 20.8 19.9398 20.775 19.9914C20.775 20.043 20.8125 20.0816 20.8875 20.1074C20.9625 20.1332 21.0875 20.1461 21.2625 20.1461C21.5125 20.1461 21.6625 20.1074 21.7125 20.0301C21.7875 19.927 21.825 19.7207 21.825 19.4114C21.825 18.9474 21.7125 18.7154 21.4875 18.7154C21.4375 18.7154 21.2625 18.7411 20.9625 18.7927H20.5875C20.1625 18.7927 19.875 18.754 19.725 18.6767C19.475 18.5478 19.3375 18.6251 19.3125 18.9087C19.3125 19.0118 19.3 19.0634 19.275 19.0634C19.2 19.0634 19.0875 18.7411 18.9375 18.0967C18.7875 17.4264 18.7 16.8851 18.675 16.4726V15.5059L22.5375 15.6219C23.2875 15.6477 24.125 15.6606 25.05 15.6606C25.9 15.6606 26.325 15.5961 26.325 15.4672C26.325 15.2868 26.0625 15.1708 25.5375 15.1192C25.0125 15.0677 23.9875 15.0161 22.4625 14.9646C19.9125 14.8614 18.6125 14.7841 18.5625 14.7325C18.4625 14.6294 18.275 13.5081 18 11.3684C17.7 9.17723 17.5375 8.08163 17.5125 8.08163C17.4125 8.08163 16.3 10.2857 14.175 14.6939C11.1 21.0354 9.375 24.6058 9 25.4049L7.425 25.869C6.4 26.1783 5.775 26.3974 5.55 26.5263C5.4 26.6037 4.775 28.1633 3.675 31.2052C2.575 34.2213 1.975 35.7809 1.875 35.884C1.8 35.9613 1.725 36 1.65 36C1.45 36 1.225 35.7809 0.975 35.3426C0.725 34.9302 0.525 34.4017 0.375 33.7572L0 32.1719L0.5625 31.1665C0.8125 30.7025 1.025 30.3931 1.2 30.2385C1.375 30.0838 1.625 29.9936 1.95 29.9678L2.775 29.8518L4.65 25.4049C5.575 23.2137 6.55 21.0741 7.575 18.986C8.6 16.898 9.2 15.8153 9.375 15.7379C9.5 15.6864 9.5625 15.5317 9.5625 15.2739C9.5625 15.0419 10.8 12.4382 13.275 7.46294Z" fill="white"/>
</svg>
