<svg width="500" height="500" viewBox="0 0 500 500" fill="none" xmlns="http://www.w3.org/2000/svg">
<g opacity="0.8">
<path d="M250 0C282.83 3.91499e-07 315.339 6.46644 345.671 19.0301C376.002 31.5938 403.562 50.0087 426.777 73.2233C449.991 96.438 468.406 123.998 480.97 154.329C493.534 184.661 500 217.17 500 250H497.5C497.5 217.498 491.098 185.314 478.66 155.286C466.222 125.258 447.991 97.9736 425.009 74.9911C402.026 52.0086 374.742 33.7779 344.714 21.3398C314.686 8.90178 282.502 2.5 250 2.5V0Z" fill="#18FEF0"/>
<path d="M466.506 375C450.091 403.432 428.237 428.352 402.19 448.338C376.144 468.324 346.417 482.984 314.705 491.481C282.993 499.979 249.918 502.146 217.368 497.861C184.819 493.576 153.432 482.922 125 466.506L126.25 464.341C154.398 480.592 185.471 491.14 217.695 495.383C249.919 499.625 282.663 497.479 314.058 489.067C345.452 480.654 374.883 466.141 400.668 446.355C426.454 426.569 448.09 401.898 464.341 373.75L466.506 375Z" fill="#18FEF0"/>
<path d="M33.4937 375C17.0784 346.568 6.42401 315.181 2.13878 282.632C-2.14645 250.082 0.0214039 217.007 8.51858 185.295C17.0157 153.583 31.6758 123.856 51.6618 97.8095C71.6477 71.7633 96.5682 49.9087 125 33.4935L126.25 35.6586C98.1025 51.9096 73.4313 73.5457 53.6452 99.3314C33.8591 125.117 19.3456 154.547 10.9334 185.942C2.52119 217.337 0.37501 250.081 4.61739 282.305C8.85977 314.529 19.4076 345.602 35.6587 373.75L33.4937 375Z" fill="#18FEF0"/>
</g>
</svg>
