<svg width="60" height="60" viewBox="0 0 60 60" fill="none" xmlns="http://www.w3.org/2000/svg">
<path fill-rule="evenodd" clip-rule="evenodd" d="M7 4L4 7V53L7 56H48L51 53V39L56 34V9L51 4H7Z" fill="#F2C248"/>
<path d="M14.6031 23.2298C13.8388 23.2298 13.1053 23.173 12.4026 23.0596C11.6999 22.9574 11.0588 22.8156 10.4794 22.634C9.91228 22.4411 9.41916 22.2255 9 21.9872L10.6828 19.0596C11.1636 19.3092 11.6444 19.5191 12.1252 19.6894C12.6183 19.8482 13.1053 19.9674 13.5861 20.0468C14.0792 20.1262 14.5661 20.166 15.0469 20.166C15.4291 20.166 15.7435 20.1376 15.99 20.0809C16.2489 20.0241 16.44 19.9447 16.5633 19.8426C16.6989 19.7291 16.7667 19.6043 16.7667 19.4681C16.7667 19.2865 16.6558 19.139 16.4339 19.0255C16.2119 18.9121 15.9161 18.8099 15.5462 18.7191C15.1887 18.6284 14.7881 18.5376 14.3442 18.4468C13.9128 18.3447 13.4751 18.2199 13.0313 18.0723C12.5875 17.9135 12.1807 17.7149 11.8108 17.4766C11.4533 17.2383 11.1636 16.9376 10.9417 16.5745C10.7198 16.2113 10.6088 15.7688 10.6088 15.2468C10.6088 14.339 10.8677 13.5504 11.3855 12.8809C11.9156 12.2113 12.6676 11.695 13.6415 11.3319C14.6278 10.9574 15.799 10.7702 17.155 10.7702C18.1166 10.7702 19.0104 10.861 19.8364 11.0426C20.6747 11.2241 21.3959 11.4794 22 11.8085L20.4282 14.7191C19.9104 14.4241 19.3433 14.2028 18.7269 14.0553C18.1228 13.9078 17.5064 13.834 16.8777 13.834C16.4585 13.834 16.1072 13.8738 15.8236 13.9532C15.5401 14.0213 15.3243 14.1177 15.1764 14.2426C15.0408 14.3674 14.973 14.4979 14.973 14.634C14.973 14.8156 15.0839 14.9688 15.3058 15.0936C15.5277 15.2071 15.8236 15.3092 16.1935 15.4C16.5633 15.4794 16.964 15.5702 17.3954 15.6723C17.8393 15.7631 18.2769 15.8823 18.7084 16.0298C19.1522 16.166 19.559 16.3532 19.9289 16.5915C20.2987 16.8184 20.5946 17.1135 20.8165 17.4766C21.0384 17.8284 21.1494 18.2652 21.1494 18.7872C21.1494 19.6723 20.8843 20.4496 20.3542 21.1191C19.8241 21.7773 19.0659 22.2936 18.0797 22.6681C17.1057 23.0426 15.9469 23.2298 14.6031 23.2298ZM12.9758 25L13.4566 22.7872H16.064L15.5832 25H12.9758ZM15.9715 11.2128L16.4523 9H19.0597L18.5789 11.2128H15.9715Z" fill="white"/>
<path d="M30.6165 44L31.6529 38.2986L32.0947 40.5457L28 31H32.0777L34.983 38.0757H32.4175L37.8714 31H42L34.3034 40.9171L35.6626 38.2986L34.6262 44H30.6165ZM28.1019 42.8857L28.4757 40.8057H37.9223L37.5485 42.8857H28.1019ZM28.5777 40.3229L28.9515 38.2429H38.3981L38.0243 40.3229H28.5777Z" fill="white"/>
<path d="M26 20.0615L26.4146 17.7664H36.629L36.2144 20.0615H26ZM26.5277 17.2336L26.9423 14.9385H37.1567L36.7421 17.2336H26.5277ZM34.8763 25C33.5194 25 32.3322 24.7336 31.3145 24.2008C30.2968 23.6544 29.5053 22.903 28.9399 21.9467C28.3871 20.9768 28.1107 19.8566 28.1107 18.5861C28.1107 17.3292 28.3117 16.1749 28.7138 15.123C29.1284 14.071 29.7063 13.1626 30.4476 12.3975C31.1888 11.6325 32.0683 11.0451 33.086 10.6352C34.1037 10.2117 35.2218 10 36.4405 10C37.7095 10 38.8339 10.2459 39.8139 10.7377C40.7939 11.2295 41.5226 11.9399 42 12.8689L38.7962 15.5943C38.5198 15.0615 38.1618 14.6516 37.722 14.3648C37.2823 14.0642 36.7609 13.9139 36.1578 13.9139C35.6302 13.9139 35.1464 14.0232 34.7067 14.2418C34.2795 14.4467 33.9089 14.7473 33.5948 15.1434C33.2807 15.526 33.0357 15.9836 32.8598 16.5164C32.6839 17.0492 32.596 17.6366 32.596 18.2787C32.596 18.8388 32.7091 19.3306 32.9352 19.7541C33.1614 20.1776 33.4755 20.5055 33.8775 20.7377C34.2921 20.9699 34.7695 21.0861 35.3098 21.0861C35.8249 21.0861 36.3274 20.9563 36.8174 20.6967C37.32 20.4372 37.7974 20.0137 38.2497 19.4262L40.8693 22.1516C40.0652 23.2172 39.1669 23.9617 38.1743 24.3852C37.1943 24.7951 36.095 25 34.8763 25Z" fill="white"/>
<path d="M10.5607 43.6369L11.8225 36.7374C12.0771 35.3818 12.5198 34.2863 13.1507 33.4511C13.7816 32.6038 14.5619 31.9865 15.4917 31.5992C16.4215 31.1997 17.4508 31 18.5798 31C19.2882 31 19.9302 31.0726 20.5057 31.2179C21.0813 31.351 21.5794 31.5447 22 31.7989L20.4393 34.9581C20.0851 34.7765 19.7254 34.6494 19.3602 34.5768C19.006 34.5042 18.6518 34.4679 18.2976 34.4679C17.6113 34.4679 17.0524 34.6313 16.6207 34.9581C16.2001 35.2849 15.9123 35.8478 15.7573 36.6466L14.4789 43.6369H10.5607ZM9 44L9.5977 40.7682H20.0575L19.4598 44H9ZM9.94636 38.8436L10.378 36.4469H19.2771L18.8455 38.8436H9.94636Z" fill="white"/>
<path d="M0 0H5V2H2V5H0V0Z" fill="#F2C248"/>
<path d="M60 0H55V2H58V5H60V0Z" fill="#F2C248"/>
<path d="M0 60L-2.18557e-07 55L2 55L2 58L5 58L5 60L0 60Z" fill="#F2C248"/>
<path d="M60 60L60 55L58 55L58 58L55 58L55 60L60 60Z" fill="#F2C248"/>
<path d="M49.8571 10.1429L46.1429 13.8571M46 10H50V14H46V10Z" stroke="white"/>
<path d="M11.1494 51.3643H11.4438V51.4756C11.4438 51.5547 11.4614 51.6128 11.4966 51.6499C11.5317 51.687 11.5894 51.7056 11.6694 51.7056H12.2744C12.3545 51.7056 12.4121 51.687 12.4473 51.6499C12.4824 51.6128 12.5 51.5547 12.5 51.4756V51.313C12.5 51.2329 12.4824 51.1748 12.4473 51.1387C12.4121 51.1025 12.3545 51.0845 12.2744 51.0845H11.6533V50.7915H12.2656C12.3389 50.7886 12.3911 50.769 12.4224 50.7329C12.4546 50.6958 12.4707 50.6392 12.4707 50.563V50.4253C12.4707 50.3452 12.4526 50.2866 12.4165 50.2495C12.3813 50.2124 12.3242 50.1938 12.2451 50.1938H11.6987C11.6196 50.1938 11.5625 50.2124 11.5273 50.2495C11.4922 50.2866 11.4746 50.3452 11.4746 50.4253V50.5366H11.1802V50.4106C11.1802 50.0698 11.3501 49.8994 11.6899 49.8994H12.2539C12.4268 49.8994 12.5547 49.9414 12.6377 50.0254C12.7217 50.1094 12.7637 50.2378 12.7637 50.4106V50.4487C12.7637 50.5669 12.7427 50.6646 12.7007 50.7417C12.6597 50.8179 12.5996 50.8745 12.5205 50.9116C12.6094 50.938 12.6772 50.9907 12.7241 51.0698C12.771 51.1489 12.7944 51.2539 12.7944 51.3848V51.4902C12.7944 51.8301 12.6245 52 12.2847 52H11.6606C11.3198 52 11.1494 51.8301 11.1494 51.4902V51.3643ZM14.3003 50.7915C14.3735 50.7886 14.4258 50.769 14.457 50.7329C14.4883 50.6958 14.5039 50.6392 14.5039 50.563V50.4253C14.5039 50.3452 14.4863 50.2866 14.4512 50.2495C14.416 50.2124 14.3589 50.1938 14.2798 50.1938H13.7334C13.6543 50.1938 13.5972 50.2124 13.562 50.2495C13.5269 50.2866 13.5093 50.3452 13.5093 50.4253V50.563C13.5093 50.6392 13.5249 50.6958 13.5562 50.7329C13.5884 50.769 13.6406 50.7886 13.7129 50.7915H14.3003ZM14.3091 51.7056C14.3892 51.7056 14.4468 51.687 14.4819 51.6499C14.5171 51.6128 14.5347 51.5547 14.5347 51.4756V51.313C14.5347 51.2329 14.5171 51.1748 14.4819 51.1387C14.4468 51.1025 14.3892 51.0845 14.3091 51.0845H13.7041C13.624 51.0845 13.5664 51.1025 13.5312 51.1387C13.4961 51.1748 13.4785 51.2329 13.4785 51.313V51.4756C13.4785 51.5547 13.4961 51.6128 13.5312 51.6499C13.5664 51.687 13.624 51.7056 13.7041 51.7056H14.3091ZM13.6953 52C13.3545 52 13.1841 51.8301 13.1841 51.4902V51.3848C13.1841 51.2539 13.2075 51.1489 13.2544 51.0698C13.3013 50.9907 13.3691 50.938 13.458 50.9116C13.3789 50.8745 13.3184 50.8179 13.2764 50.7417C13.2354 50.6646 13.2148 50.5669 13.2148 50.4487V50.4106C13.2148 50.0698 13.3848 49.8994 13.7246 49.8994H14.2886C14.6284 49.8994 14.7983 50.0698 14.7983 50.4106V50.4487C14.7983 50.5669 14.7773 50.6646 14.7354 50.7417C14.6943 50.8179 14.6343 50.8745 14.5552 50.9116C14.644 50.938 14.7119 50.9907 14.7588 51.0698C14.8057 51.1489 14.8291 51.2539 14.8291 51.3848V51.4902C14.8291 51.8301 14.6592 52 14.3193 52H13.6953ZM15.3916 52L16.3335 50.1997H15.1602V49.8994H16.7803V49.9902L15.7388 52H15.3916ZM16.8696 51.2764L17.9053 49.8994H18.2583V51.2764H18.541V51.5649H18.2583V52H17.958V51.5649H16.8696V51.2764ZM17.958 51.2764V50.2627L17.1963 51.2764H17.958ZM19.3818 49.8994V52H19.0815V50.1997H18.7212V49.8994H19.3818ZM20.2241 50.1997V50.4707H19.9238V50.1997C19.9238 50.1587 19.9316 50.1201 19.9473 50.084C19.9629 50.0469 19.9844 50.0151 20.0117 49.9888C20.0391 49.9614 20.0708 49.9399 20.1069 49.9243C20.144 49.9077 20.1831 49.8994 20.2241 49.8994H21.1748C21.2158 49.8994 21.2544 49.9077 21.2905 49.9243C21.3276 49.9399 21.3594 49.9614 21.3857 49.9888C21.4131 50.0151 21.4346 50.0469 21.4502 50.084C21.4668 50.1201 21.4751 50.1587 21.4751 50.1997V50.5835C21.4751 50.6245 21.4712 50.6611 21.4634 50.6934C21.4556 50.7256 21.4429 50.7549 21.4253 50.7812C21.4087 50.8066 21.3872 50.8296 21.3608 50.8501C21.3345 50.8706 21.3022 50.8901 21.2642 50.9087L20.2241 51.3965V51.6997H21.2129V51.4302H21.5132V52H19.9238V51.4478C19.9238 51.4067 19.9277 51.3701 19.9355 51.3379C19.9443 51.3057 19.957 51.2769 19.9736 51.2515C19.9902 51.2261 20.0117 51.2031 20.0381 51.1826C20.0654 51.1611 20.0972 51.1416 20.1333 51.124L21.1748 50.6348V50.1997H20.2241ZM22.3247 49.8994V51.6997H23.4043V52H22.0244V49.8994H22.3247ZM24.0649 49.8994V50.8062L25.0669 49.8994H25.4902L24.3535 50.9292L25.5356 52H25.1123L24.0649 51.0552V52H23.7646V49.8994H24.0649ZM25.7495 51.3394H26.0498V51.6997H26.8994V49.8994H27.1997V51.6997C27.1997 51.7407 27.1914 51.7798 27.1748 51.8169C27.1592 51.853 27.1377 51.8848 27.1104 51.9121C27.084 51.9395 27.0522 51.9609 27.0151 51.9766C26.979 51.9922 26.9404 52 26.8994 52H26.0498C26.0088 52 25.9697 51.9922 25.9326 51.9766C25.8965 51.9609 25.8647 51.9395 25.8374 51.9121C25.811 51.8848 25.7896 51.853 25.7729 51.8169C25.7573 51.7798 25.7495 51.7407 25.7495 51.6997V51.3394ZM28.8081 51.6997C28.9478 51.6997 29.0552 51.6621 29.1304 51.5869C29.2056 51.5117 29.2432 51.4043 29.2432 51.2646V50.6348C29.2432 50.5664 29.2334 50.5054 29.2139 50.4517C29.1943 50.3979 29.1655 50.3525 29.1274 50.3154C29.0903 50.2773 29.0449 50.2485 28.9912 50.229C28.9375 50.2095 28.8765 50.1997 28.8081 50.1997H28.0405V51.6997H28.8081ZM27.7402 52V49.8994H28.8081C28.9204 49.8994 29.0215 49.917 29.1113 49.9521C29.2021 49.9863 29.2793 50.0356 29.3428 50.1001C29.4072 50.1636 29.4565 50.2407 29.4907 50.3315C29.5259 50.4224 29.5435 50.5234 29.5435 50.6348V51.2646C29.5435 51.376 29.5259 51.4771 29.4907 51.5679C29.4565 51.6587 29.4072 51.7363 29.3428 51.8008C29.2793 51.8643 29.2021 51.9136 29.1113 51.9487C29.0215 51.9829 28.9204 52 28.8081 52H27.7402ZM31.4902 51.4902C31.4873 51.6611 31.4443 51.7891 31.3613 51.874C31.2783 51.958 31.1514 52 30.9805 52H30.4165C30.0757 52 29.9053 51.8301 29.9053 51.4902V51.3643H30.1997V51.4756C30.1997 51.5547 30.2173 51.6128 30.2524 51.6499C30.2876 51.687 30.3452 51.7056 30.4253 51.7056H30.9702C31.0503 51.7056 31.1079 51.687 31.1431 51.6499C31.1782 51.6128 31.1958 51.5547 31.1958 51.4756V51.1929C31.1958 51.1138 31.1782 51.0562 31.1431 51.02C31.1079 50.9829 31.0503 50.9644 30.9702 50.9644H29.9653V49.8994H31.436V50.1997H30.2656V50.6714H30.9805C31.1523 50.6714 31.2803 50.7134 31.3643 50.7974C31.4482 50.8804 31.4902 51.0083 31.4902 51.1812V51.4902ZM32.4219 49.8994V52H32.1216V50.1997H31.7612V49.8994H32.4219ZM33.2935 49.8994V50.8062L34.2954 49.8994H34.7188L33.582 50.9292L34.7642 52H34.3408L33.2935 51.0552V52H32.9932V49.8994H33.2935ZM34.918 51.3643H35.2124V51.4756C35.2124 51.5547 35.23 51.6128 35.2651 51.6499C35.3003 51.687 35.3579 51.7056 35.438 51.7056H36.043C36.123 51.7056 36.1807 51.687 36.2158 51.6499C36.251 51.6128 36.2686 51.5547 36.2686 51.4756V51.313C36.2686 51.2329 36.251 51.1748 36.2158 51.1387C36.1807 51.1025 36.123 51.0845 36.043 51.0845H35.4219V50.7915H36.0342C36.1074 50.7886 36.1597 50.769 36.1909 50.7329C36.2231 50.6958 36.2393 50.6392 36.2393 50.563V50.4253C36.2393 50.3452 36.2212 50.2866 36.1851 50.2495C36.1499 50.2124 36.0928 50.1938 36.0137 50.1938H35.4673C35.3882 50.1938 35.3311 50.2124 35.2959 50.2495C35.2607 50.2866 35.2432 50.3452 35.2432 50.4253V50.5366H34.9487V50.4106C34.9487 50.0698 35.1187 49.8994 35.4585 49.8994H36.0225C36.1953 49.8994 36.3232 49.9414 36.4062 50.0254C36.4902 50.1094 36.5322 50.2378 36.5322 50.4106V50.4487C36.5322 50.5669 36.5112 50.6646 36.4692 50.7417C36.4282 50.8179 36.3682 50.8745 36.2891 50.9116C36.3779 50.938 36.4458 50.9907 36.4927 51.0698C36.5396 51.1489 36.563 51.2539 36.563 51.3848V51.4902C36.563 51.8301 36.3931 52 36.0532 52H35.4292C35.0884 52 34.918 51.8301 34.918 51.4902V51.3643ZM36.9526 51.3394H37.2529V51.6997H38.1025V49.8994H38.4028V51.6997C38.4028 51.7407 38.3945 51.7798 38.3779 51.8169C38.3623 51.853 38.3408 51.8848 38.3135 51.9121C38.2871 51.9395 38.2554 51.9609 38.2183 51.9766C38.1821 51.9922 38.1436 52 38.1025 52H37.2529C37.2119 52 37.1729 51.9922 37.1357 51.9766C37.0996 51.9609 37.0679 51.9395 37.0405 51.9121C37.0142 51.8848 36.9927 51.853 36.9761 51.8169C36.9604 51.7798 36.9526 51.7407 36.9526 51.6997V51.3394ZM39.2437 49.8994V51.6997H40.3232V52H38.9434V49.8994H39.2437Z" fill="white"/>
<path d="M47.3003 17.9204C47.2593 17.9204 47.2202 17.9126 47.1831 17.897C47.147 17.8813 47.1152 17.8599 47.0879 17.8325C47.0605 17.8052 47.0391 17.7729 47.0234 17.7358C47.0078 17.6997 47 17.6611 47 17.6201L47 16.5698C47 16.5288 47.0078 16.4897 47.0234 16.4526C47.0391 16.4165 47.0605 16.3848 47.0879 16.3574C47.1152 16.3301 47.147 16.3086 47.1831 16.293C47.2202 16.2773 47.2593 16.2695 47.3003 16.2695L48.8003 16.2695C48.8413 16.2695 48.8799 16.2773 48.916 16.293C48.9531 16.3086 48.9849 16.3301 49.0112 16.3574C49.0386 16.3848 49.0601 16.4165 49.0757 16.4526C49.0923 16.4897 49.1006 16.5288 49.1006 16.5698L49.1006 17.6201C49.1006 17.6611 49.0923 17.6997 49.0757 17.7358C49.0601 17.7729 49.0386 17.8052 49.0112 17.8325C48.9849 17.8599 48.9531 17.8813 48.916 17.897C48.8799 17.9126 48.8413 17.9204 48.8003 17.9204L47.3003 17.9204ZM48.8003 16.5698L47.3003 16.5698L47.3003 17.6201L48.8003 17.6201L48.8003 16.5698ZM49.1006 18.6587L48.314 19.2197L49.1006 19.7837L49.1006 20.147L48.0591 19.4028L47 20.1631L47 19.7998L47.8071 19.2197L47 18.644L47 18.2808L48.0591 19.041L49.1006 18.2969L49.1006 18.6587ZM49.1006 20.8237L48.1938 20.8237L49.1006 21.8257L49.1006 22.249L48.0708 21.1123L47 22.2944L47 21.8711L47.9448 20.8237L47 20.8237L47 20.5234L49.1006 20.5234L49.1006 20.8237ZM48.8003 22.8394L48.5293 22.8394L48.5293 22.5391L48.8003 22.5391C48.8413 22.5391 48.8799 22.5469 48.916 22.5625C48.9531 22.5781 48.9849 22.5996 49.0112 22.627C49.0386 22.6543 49.0601 22.686 49.0757 22.7222C49.0923 22.7593 49.1006 22.7983 49.1006 22.8394L49.1006 23.79C49.1006 23.8311 49.0923 23.8696 49.0757 23.9058C49.0601 23.9429 49.0386 23.9746 49.0112 24.001C48.9849 24.0283 48.9531 24.0498 48.916 24.0654C48.8799 24.082 48.8413 24.0903 48.8003 24.0903L48.4165 24.0903C48.3755 24.0903 48.3389 24.0864 48.3066 24.0786C48.2744 24.0708 48.2451 24.0581 48.2187 24.0405C48.1934 24.0239 48.1704 24.0024 48.1499 23.9761C48.1294 23.9497 48.1099 23.9175 48.0913 23.8794L47.6035 22.8394L47.3003 22.8394L47.3003 23.8281L47.5698 23.8281L47.5698 24.1284L47 24.1284L47 22.5391L47.5522 22.5391C47.5933 22.5391 47.6299 22.543 47.6621 22.5508C47.6943 22.5596 47.7231 22.5723 47.7485 22.5889C47.7739 22.6055 47.7969 22.627 47.8174 22.6533C47.8389 22.6807 47.8584 22.7124 47.876 22.7485L48.3652 23.79L48.8003 23.79L48.8003 22.8394ZM49.1006 26.4429L47 26.4429L47 26.1426L47.8994 26.1426L47.8994 24.9399L47 24.9399L47 24.6396L49.1006 24.6396L49.1006 24.9399L48.1997 24.9399L48.1997 26.1426L49.1006 26.1426L49.1006 26.4429ZM49.1006 27.4639L47 27.4639L47 27.1636L48.8003 27.1636L48.8003 26.8032L49.1006 26.8032L49.1006 27.4639ZM49.1006 28.3354L47.3003 28.3354L47.3003 29.415L47 29.415L47 28.0352L49.1006 28.0352L49.1006 28.3354ZM47.6606 29.7153L47.6606 30.0156L47.3003 30.0156L47.3003 30.8652L49.1006 30.8652L49.1006 31.1655L47.3003 31.1655C47.2593 31.1655 47.2202 31.1572 47.1831 31.1406C47.147 31.125 47.1152 31.1035 47.0879 31.0762C47.0605 31.0498 47.0391 31.0181 47.0234 30.981C47.0078 30.9448 47 30.9062 47 30.8652L47 30.0156C47 29.9746 47.0078 29.9355 47.0234 29.8984C47.0391 29.8623 47.0605 29.8306 47.0879 29.8032C47.1152 29.7769 47.147 29.7554 47.1831 29.7388C47.2202 29.7231 47.2593 29.7153 47.3003 29.7153L47.6606 29.7153ZM49.1006 32.0063L48.1938 32.0063L49.1006 33.0083L49.1006 33.4316L48.0708 32.2949L47 33.4771L47 33.0537L47.9448 32.0063L47 32.0063L47 31.7061L49.1006 31.7061L49.1006 32.0063ZM47.3003 34.8188C47.3003 34.9585 47.3379 35.0659 47.4131 35.1411C47.4883 35.2163 47.5957 35.2539 47.7354 35.2539L48.3652 35.2539C48.4336 35.2539 48.4946 35.2441 48.5483 35.2246C48.602 35.2051 48.6475 35.1763 48.6846 35.1382C48.7227 35.1011 48.7515 35.0557 48.771 35.002C48.7905 34.9482 48.8003 34.8872 48.8003 34.8188L48.8003 34.0513L47.3003 34.0513L47.3003 34.8188ZM47 33.751L49.1006 33.751L49.1006 34.8188C49.1006 34.9312 49.083 35.0322 49.0479 35.1221C49.0137 35.2129 48.9644 35.29 48.8999 35.3535C48.8364 35.418 48.7593 35.4673 48.6685 35.5015C48.5776 35.5366 48.4766 35.5542 48.3652 35.5542L47.7354 35.5542C47.624 35.5542 47.5229 35.5366 47.4321 35.5015C47.3413 35.4673 47.2637 35.418 47.1992 35.3535C47.1357 35.29 47.0864 35.2129 47.0513 35.1221C47.0171 35.0322 47 34.9312 47 34.8188L47 33.751Z" fill="white"/>
</svg>
